# xmcd
#
# Track frame offsets:
#	150
#	11025
#	25352
#	40652
#	55430
#	69155
#	84157
#	96682
#	109360
#	123385
#
# Disc length: 1835 seconds
#
# Revision: 0
# Processed by: cddbd v1.4PL0 Copyright (c) Steve Scherf et al.
# Submitted via: audiograbber 1.81.02
#
DISCID=8307290a
DTITLE=Los Rodarte - Los Exitos Que Hicieron Historia
DYEAR=2000
DGENRE=Latin
TTITLE0=Que Levante La Mano
TTITLE1=Y Me Dijo Eres Tu
TTITLE2=Mercenaria De Amor
TTITLE3=Ves Que No Es Igual
TTITLE4=El Contrato
TTITLE5=Amor Perdoname
TTITLE6=Guadalupe
TTITLE7=Devuelveme Mi Cassette
TTITLE8=Todo Por El Todo
TTITLE9=No Soy Un Cualquiera
EXTD=
EXTT0=
EXTT1=
EXTT2=
EXTT3=
EXTT4=
EXTT5=
EXTT6=
EXTT7=
EXTT8=
EXTT9=
PLAYORDER=
